solid OpenSCAD_Model
  facet normal -1 0 0
    outer loop
      vertex -24.2705 -17.6336 -9.78025
      vertex -24.2705 -17.6336 40
      vertex -24.2705 -6.95658 -9.78025
    endloop
  endfacet
  facet normal -1 0 0
    outer loop
      vertex -24.2705 1.24794 30.6409
      vertex -24.2705 -17.6336 40
      vertex -24.2705 17.6336 40
    endloop
  endfacet
  facet normal -1 0 0
    outer loop
      vertex -24.2705 -8.84073 7.6552
      vertex -24.2705 -17.6336 40
      vertex -24.2705 1.24794 30.6409
    endloop
  endfacet
  facet normal -1 0 0
    outer loop
      vertex -24.2705 17.6336 13.5664
      vertex -24.2705 -6.95658 -9.78025
      vertex -24.2705 -8.84073 7.6552
    endloop
  endfacet
  facet normal -1 0 0
    outer loop
      vertex -24.2705 -6.95658 -9.78025
      vertex -24.2705 -17.6336 40
      vertex -24.2705 -8.84073 7.6552
    endloop
  endfacet
  facet normal -1 0 0
    outer loop
      vertex -24.2705 -6.95658 -9.78025
      vertex -24.2705 17.6336 13.5664
      vertex -24.2705 17.6336 -12.6978
    endloop
  endfacet
  facet normal -1 0 0
    outer loop
      vertex -24.2705 1.24794 30.6409
      vertex -24.2705 17.6336 40
      vertex -24.2705 17.6336 19.5935
    endloop
  endfacet
  facet normal -1 0 0
    outer loop
      vertex -24.2705 -6.95658 -9.78025
      vertex -24.2705 17.6336 -12.6978
      vertex -24.2705 6.51516 -12.6978
    endloop
  endfacet
  facet normal -1 0 0
    outer loop
      vertex -24.2705 -6.95658 -9.78025
      vertex -24.2705 6.51516 -12.6978
      vertex -24.2705 8.84709 -20
    endloop
  endfacet
  facet normal -1 0 0
    outer loop
      vertex -24.2705 -6.95658 -9.78025
      vertex -24.2705 8.84709 -20
      vertex -24.2705 -9.01598 -20
    endloop
  endfacet
  facet normal -0.309017 -0.951057 0
    outer loop
      vertex -24.2705 -17.6336 40
      vertex -24.2705 -17.6336 -9.78025
      vertex -22.4215 -18.2343 -2.87975
    endloop
  endfacet
  facet normal -0.309017 -0.951057 0
    outer loop
      vertex 8.27214 -28.2073 -16.8434
      vertex 9.27051 -28.5317 23.8969
      vertex 1.54607 -26.0219 2.68696
    endloop
  endfacet
  facet normal -0.309017 -0.951057 0
    outer loop
      vertex -10.5758 -22.0832 8.20165
      vertex -24.2705 -17.6336 40
      vertex -22.4215 -18.2343 -2.87975
    endloop
  endfacet
  facet normal -0.309017 -0.951057 0
    outer loop
      vertex -10.5758 -22.0832 8.20165
      vertex 1.54607 -26.0219 2.68696
      vertex -24.2705 -17.6336 40
    endloop
  endfacet
  facet normal -0.309017 -0.951057 0
    outer loop
      vertex -11.5993 -21.7507 34.5919
      vertex -10.1502 -22.2215 40
      vertex -24.2705 -17.6336 40
    endloop
  endfacet
  facet normal -0.309017 -0.951057 0
    outer loop
      vertex 8.03716 -28.131 -20
      vertex 9.27051 -28.5317 -20
      vertex 8.27214 -28.2073 -16.8434
    endloop
  endfacet
  facet normal -0.309017 -0.951057 0
    outer loop
      vertex 9.27051 -28.5317 -20
      vertex 9.27051 -28.5317 23.8969
      vertex 8.27214 -28.2073 -16.8434
    endloop
  endfacet
  facet normal -0.309017 -0.951057 0
    outer loop
      vertex 1.54607 -26.0219 2.68696
      vertex -3.03401 -24.5337 15.4421
      vertex -24.2705 -17.6336 40
    endloop
  endfacet
  facet normal -0.309017 -0.951057 0
    outer loop
      vertex 1.54607 -26.0219 2.68696
      vertex 9.27051 -28.5317 23.8969
      vertex -3.03401 -24.5337 15.4421
    endloop
  endfacet
  facet normal -0.309017 -0.951057 0
    outer loop
      vertex -3.03401 -24.5337 15.4421
      vertex -11.5993 -21.7507 34.5919
      vertex -24.2705 -17.6336 40
    endloop
  endfacet
  facet normal 0.965926 3.636e-018 -0.258819
    outer loop
      vertex -24.2705 -6.95658 -9.78025
      vertex -19.3988 3.91073 8.40111
      vertex -20.1582 -10.2485 5.56715
    endloop
  endfacet
  facet normal 0.965926 3.636e-018 -0.258819
    outer loop
      vertex -22.4215 -18.2343 -2.87975
      vertex -24.2705 -6.95658 -9.78025
      vertex -20.1582 -10.2485 5.56715
    endloop
  endfacet
  facet normal 0.965926 3.636e-018 -0.258819
    outer loop
      vertex -16.0341 -3.98587 20.9584
      vertex -22.4215 -18.2343 -2.87975
      vertex -20.1582 -10.2485 5.56715
    endloop
  endfacet
  facet normal 0.965926 3.636e-018 -0.258819
    outer loop
      vertex -22.4215 -18.2343 -2.87975
      vertex -24.2705 -17.6336 -9.78025
      vertex -24.2705 -6.95658 -9.78025
    endloop
  endfacet
  facet normal 0.823125 -0.55667 0.112176
    outer loop
      vertex -18.1324 0.0601599 -20
      vertex -17.5922 1.26521 -17.9839
      vertex -21.1191 -0.514668 -0.93666
    endloop
  endfacet
  facet normal 0.823125 -0.55667 0.112176
    outer loop
      vertex -24.2705 -6.95658 -9.78025
      vertex -18.1324 0.0601599 -20
      vertex -21.1191 -0.514668 -0.93666
    endloop
  endfacet
  facet normal 0.823125 -0.55667 0.112176
    outer loop
      vertex -18.6387 5.01855 8.32059
      vertex -19.3988 3.91073 8.40111
      vertex -21.1191 -0.514668 -0.93666
    endloop
  endfacet
  facet normal 0.823125 -0.55667 0.112176
    outer loop
      vertex -19.3988 3.91073 8.40111
      vertex -24.2705 -6.95658 -9.78025
      vertex -21.1191 -0.514668 -0.93666
    endloop
  endfacet
  facet normal 0.823125 -0.55667 0.112176
    outer loop
      vertex -24.2705 -6.95658 -9.78025
      vertex -24.2705 -9.01598 -20
      vertex -18.1324 0.0601599 -20
    endloop
  endfacet
  facet normal 0 0 -1
    outer loop
      vertex -24.2705 -9.01598 -20
      vertex -24.2705 8.84709 -20
      vertex -18.1324 0.0601599 -20
    endloop
  endfacet
  facet normal 0 0 -1
    outer loop
      vertex -18.1324 0.0601599 -20
      vertex -24.2705 8.84709 -20
      vertex -16.3923 0.66242 -20
    endloop
  endfacet
  facet normal 0.703421 0.677086 0.216225
    outer loop
      vertex -21.1191 -0.514668 -0.93666
      vertex -17.5922 1.26521 -17.9839
      vertex -24.2705 8.84709 -20
    endloop
  endfacet
  facet normal 0.703421 0.677086 0.216225
    outer loop
      vertex -24.2705 8.84709 -20
      vertex -17.5922 1.26521 -17.9839
      vertex -16.3923 0.66242 -20
    endloop
  endfacet
  facet normal 0.703421 0.677086 0.216225
    outer loop
      vertex -21.1191 -0.514668 -0.93666
      vertex -24.2705 8.84709 -20
      vertex -24.2705 6.51516 -12.6978
    endloop
  endfacet
  facet normal 0.965926 -3.636e-018 -0.258819
    outer loop
      vertex -24.2705 17.6336 -12.6978
      vertex -20.9755 18.7042 -0.400644
      vertex -18.2328 12.586 9.83521
    endloop
  endfacet
  facet normal 0.965926 -3.636e-018 -0.258819
    outer loop
      vertex -21.1191 -0.514668 -0.93666
      vertex -24.2705 17.6336 -12.6978
      vertex -18.6387 5.01855 8.32059
    endloop
  endfacet
  facet normal 0.965926 -3.636e-018 -0.258819
    outer loop
      vertex -18.6387 5.01855 8.32059
      vertex -24.2705 17.6336 -12.6978
      vertex -18.2328 12.586 9.83521
    endloop
  endfacet
  facet normal 0.965926 -3.636e-018 -0.258819
    outer loop
      vertex -24.2705 6.51516 -12.6978
      vertex -24.2705 17.6336 -12.6978
      vertex -21.1191 -0.514668 -0.93666
    endloop
  endfacet
  facet normal -0.309017 0.951057 0
    outer loop
      vertex -24.2705 17.6336 -12.6978
      vertex -24.2705 17.6336 13.5664
      vertex -20.9755 18.7042 -0.400644
    endloop
  endfacet
  facet normal -0.309017 0.951057 0
    outer loop
      vertex -7.86488 22.9641 18.319
      vertex -10.5561 22.0896 8.64609
      vertex -11.3677 21.8259 38.3738
    endloop
  endfacet
  facet normal -0.309017 0.951057 0
    outer loop
      vertex -20.9755 18.7042 -0.400644
      vertex -24.2705 17.6336 13.5664
      vertex -10.5561 22.0896 8.64609
    endloop
  endfacet
  facet normal -0.309017 0.951057 0
    outer loop
      vertex -24.2705 17.6336 40
      vertex -10.5561 22.0896 8.64609
      vertex -21.4624 18.546 24.5088
    endloop
  endfacet
  facet normal -0.309017 0.951057 0
    outer loop
      vertex -24.2705 17.6336 19.5935
      vertex -24.2705 17.6336 40
      vertex -21.4624 18.546 24.5088
    endloop
  endfacet
  facet normal -0.309017 0.951057 0
    outer loop
      vertex -24.2705 17.6336 40
      vertex -10.9319 21.9675 40
      vertex -11.3677 21.8259 38.3738
    endloop
  endfacet
  facet normal -0.309017 0.951057 0
    outer loop
      vertex -24.2705 17.6336 40
      vertex -11.3677 21.8259 38.3738
      vertex -10.5561 22.0896 8.64609
    endloop
  endfacet
  facet normal -0.309017 0.951057 0
    outer loop
      vertex 7.15349 27.8438 -10.2779
      vertex 9.27051 28.5317 -20
      vertex 6.93431 27.7726 -20
    endloop
  endfacet
  facet normal -0.309017 0.951057 0
    outer loop
      vertex 9.27051 28.5317 21.8925
      vertex 9.27051 28.5317 -20
      vertex 5.58354 27.3337 17.755
    endloop
  endfacet
  facet normal -0.309017 0.951057 0
    outer loop
      vertex -7.86488 22.9641 18.319
      vertex 5.58354 27.3337 17.755
      vertex -10.5561 22.0896 8.64609
    endloop
  endfacet
  facet normal -0.309017 0.951057 0
    outer loop
      vertex -5.05433 23.8773 7.90221
      vertex 5.58354 27.3337 17.755
      vertex 7.15349 27.8438 -10.2779
    endloop
  endfacet
  facet normal -0.309017 0.951057 0
    outer loop
      vertex 5.58354 27.3337 17.755
      vertex 9.27051 28.5317 -20
      vertex 7.15349 27.8438 -10.2779
    endloop
  endfacet
  facet normal -0.309017 0.951057 0
    outer loop
      vertex 5.58354 27.3337 17.755
      vertex -5.05433 23.8773 7.90221
      vertex -10.5561 22.0896 8.64609
    endloop
  endfacet
  facet normal -0.309017 0.951057 0
    outer loop
      vertex -20.9755 18.7042 -0.400644
      vertex -10.5561 22.0896 8.64609
      vertex -5.05433 23.8773 7.90221
    endloop
  endfacet
  facet normal 0.387978 -0.200845 0.899519
    outer loop
      vertex -18.2328 12.586 9.83521
      vertex -19.3988 3.91073 8.40111
      vertex -18.6387 5.01855 8.32059
    endloop
  endfacet
  facet normal 0.387978 -0.200845 0.899519
    outer loop
      vertex -24.2705 17.6336 13.5664
      vertex -19.3988 3.91073 8.40111
      vertex -18.2328 12.586 9.83521
    endloop
  endfacet
  facet normal 0.387978 -0.200845 0.899519
    outer loop
      vertex -20.1582 -10.2485 5.56715
      vertex -19.3988 3.91073 8.40111
      vertex -24.2705 17.6336 13.5664
    endloop
  endfacet
  facet normal 0.387978 -0.200845 0.899519
    outer loop
      vertex -10.5561 22.0896 8.64609
      vertex -18.2328 12.586 9.83521
      vertex -8.62144 21.4273 7.66374
    endloop
  endfacet
  facet normal 0.387978 -0.200845 0.899519
    outer loop
      vertex -24.2705 17.6336 13.5664
      vertex -18.2328 12.586 9.83521
      vertex -10.5561 22.0896 8.64609
    endloop
  endfacet
  facet normal 0.387978 -0.200845 0.899519
    outer loop
      vertex -24.2705 -8.84073 7.6552
      vertex -20.1582 -10.2485 5.56715
      vertex -24.2705 17.6336 13.5664
    endloop
  endfacet
  facet normal 0.108754 0.910251 -0.399519
    outer loop
      vertex -18.3541 4.64888 40
      vertex -16.9727 4.48383 40
      vertex -24.2705 1.24794 30.6409
    endloop
  endfacet
  facet normal 0.108754 0.910251 -0.399519
    outer loop
      vertex -24.2705 1.24794 30.6409
      vertex -16.9727 4.48383 40
      vertex -9.25936 1.8433 36.0835
    endloop
  endfacet
  facet normal 0.108754 0.910251 -0.399519
    outer loop
      vertex -14.9007 0.944454 32.5
      vertex -9.25936 1.8433 36.0835
      vertex -10.8645 0.462215 32.5
    endloop
  endfacet
  facet normal 0.108754 0.910251 -0.399519
    outer loop
      vertex -24.2705 1.24794 30.6409
      vertex -9.25936 1.8433 36.0835
      vertex -14.9007 0.944454 32.5
    endloop
  endfacet
  facet normal 0.108754 0.910251 -0.399519
    outer loop
      vertex -24.2705 1.24794 30.6409
      vertex -15 0 30.3212
      vertex -14.7016 -2.83932 23.9334
    endloop
  endfacet
  facet normal 0.108754 0.910251 -0.399519
    outer loop
      vertex -24.2705 1.24794 30.6409
      vertex -14.7016 -2.83932 23.9334
      vertex -16.0341 -3.98587 20.9584
    endloop
  endfacet
  facet normal 0.108754 0.910251 -0.399519
    outer loop
      vertex -24.2705 1.24794 30.6409
      vertex -16.0341 -3.98587 20.9584
      vertex -20.1582 -10.2485 5.56715
    endloop
  endfacet
  facet normal 0.108754 0.910251 -0.399519
    outer loop
      vertex -24.2705 1.24794 30.6409
      vertex -20.1582 -10.2485 5.56715
      vertex -24.2705 -8.84073 7.6552
    endloop
  endfacet
  facet normal 0.108754 0.910251 -0.399519
    outer loop
      vertex -15 0 30.3212
      vertex -24.2705 1.24794 30.6409
      vertex -14.9007 0.944454 32.5
    endloop
  endfacet
  facet normal 0.852801 -0.291944 -0.433013
    outer loop
      vertex -24.2705 17.6336 19.5935
      vertex -21.4624 18.546 24.5088
      vertex -18.1326 5.29602 40
    endloop
  endfacet
  facet normal 0.852801 -0.291944 -0.433013
    outer loop
      vertex -24.2705 1.24794 30.6409
      vertex -24.2705 17.6336 19.5935
      vertex -18.3541 4.64888 40
    endloop
  endfacet
  facet normal 0.852801 -0.291944 -0.433013
    outer loop
      vertex -18.3541 4.64888 40
      vertex -24.2705 17.6336 19.5935
      vertex -18.1326 5.29602 40
    endloop
  endfacet
  facet normal 0 0 1
    outer loop
      vertex -24.2705 17.6336 40
      vertex -24.2705 -17.6336 40
      vertex -10.1502 -22.2215 40
    endloop
  endfacet
  facet normal 0 0 1
    outer loop
      vertex -3.94273 -0.850235 40
      vertex -24.2705 17.6336 40
      vertex -10.1502 -5.44398 40
    endloop
  endfacet
  facet normal 0 0 1
    outer loop
      vertex -18.3541 4.64888 40
      vertex -24.2705 17.6336 40
      vertex -10.1502 -22.2215 40
    endloop
  endfacet
  facet normal 0 0 1
    outer loop
      vertex -10.9319 7.39562 40
      vertex -24.2705 17.6336 40
      vertex -3.94273 -0.850235 40
    endloop
  endfacet
  facet normal 0 0 1
    outer loop
      vertex -10.9319 21.9675 40
      vertex -24.2705 17.6336 40
      vertex -10.9319 7.39562 40
    endloop
  endfacet
  facet normal 0 0 1
    outer loop
      vertex -10.1502 -5.44398 40
      vertex -18.3541 4.64888 40
      vertex -10.1502 -22.2215 40
    endloop
  endfacet
  facet normal 0 0 1
    outer loop
      vertex -18.1326 5.29602 40
      vertex -24.2705 17.6336 40
      vertex -18.3541 4.64888 40
    endloop
  endfacet
  facet normal 0 0 1
    outer loop
      vertex -16.9727 4.48383 40
      vertex -24.2705 17.6336 40
      vertex -18.1326 5.29602 40
    endloop
  endfacet
  facet normal 0 0 1
    outer loop
      vertex -10.1502 -5.44398 40
      vertex -24.2705 17.6336 40
      vertex -16.9727 4.48383 40
    endloop
  endfacet
  facet normal 0 0 1
    outer loop
      vertex -16.9727 4.48383 40
      vertex -18.3541 4.64888 40
      vertex -10.1502 -5.44398 40
    endloop
  endfacet
  facet normal 0.965926 -3.636e-018 -0.258819
    outer loop
      vertex -10.1502 -22.2215 40
      vertex -13.7032 -6.10105 26.74
      vertex -12.1598 -8.77427 32.5
    endloop
  endfacet
  facet normal 0.965926 -3.636e-018 -0.258819
    outer loop
      vertex -14.5789 -3.40587 23.4718
      vertex -13.7032 -6.10105 26.74
      vertex -10.1502 -22.2215 40
    endloop
  endfacet
  facet normal 0.965926 -3.636e-018 -0.258819
    outer loop
      vertex -12.1598 -0.961102 32.5
      vertex -10.1502 -5.44398 40
      vertex -12.1598 -8.77427 32.5
    endloop
  endfacet
  facet normal 0.965926 -3.636e-018 -0.258819
    outer loop
      vertex -10.1502 -5.44398 40
      vertex -10.1502 -22.2215 40
      vertex -12.1598 -8.77427 32.5
    endloop
  endfacet
  facet normal 0.965926 -3.636e-018 -0.258819
    outer loop
      vertex -10.1502 -22.2215 40
      vertex -11.5993 -21.7507 34.5919
      vertex -14.5789 -3.40587 23.4718
    endloop
  endfacet
  facet normal 0.965926 -3.636e-018 -0.258819
    outer loop
      vertex -11.5993 -21.7507 34.5919
      vertex -17.201 -9.25494 13.6861
      vertex -14.5789 -3.40587 23.4718
    endloop
  endfacet
  facet normal 0.703421 0.677086 0.216225
    outer loop
      vertex -11.5993 -21.7507 34.5919
      vertex -3.03401 -24.5337 15.4421
      vertex -4.494 -21.2769 9.99339
    endloop
  endfacet
  facet normal 0.703421 0.677086 0.216225
    outer loop
      vertex -17.201 -9.25494 13.6861
      vertex -11.5993 -21.7507 34.5919
      vertex -8.8506 -18.2348 14.6402
    endloop
  endfacet
  facet normal 0.703421 0.677086 0.216225
    outer loop
      vertex -8.8506 -18.2348 14.6402
      vertex -11.5993 -21.7507 34.5919
      vertex -4.494 -21.2769 9.99339
    endloop
  endfacet
  facet normal -0.0887737 0.844312 0.528447
    outer loop
      vertex 9.27051 -28.5317 23.8969
      vertex 13.8295 -22.2568 14.6372
      vertex -3.03401 -24.5337 15.4421
    endloop
  endfacet
  facet normal -0.0887737 0.844312 0.528447
    outer loop
      vertex 3.77698 -21.0453 11.0129
      vertex 13.8295 -22.2568 14.6372
      vertex 11.4574 -16.9654 5.78454
    endloop
  endfacet
  facet normal -0.0887737 0.844312 0.528447
    outer loop
      vertex -3.03401 -24.5337 15.4421
      vertex 13.8295 -22.2568 14.6372
      vertex 3.77698 -21.0453 11.0129
    endloop
  endfacet
  facet normal -0.0887737 0.844312 0.528447
    outer loop
      vertex -4.494 -21.2769 9.99339
      vertex -3.03401 -24.5337 15.4421
      vertex 3.77698 -21.0453 11.0129
    endloop
  endfacet
  facet normal 0.809017 -0.587785 0
    outer loop
      vertex 18.3478 -16.0378 -12.3338
      vertex 9.27051 -28.5317 -20
      vertex 30 0 -20
    endloop
  endfacet
  facet normal 0.809017 -0.587785 0
    outer loop
      vertex 14.0466 -21.958 -11.8004
      vertex 13.8295 -22.2568 14.6372
      vertex 9.27051 -28.5317 23.8969
    endloop
  endfacet
  facet normal 0.809017 -0.587785 0
    outer loop
      vertex 14.0466 -21.958 -11.8004
      vertex 23.2528 -9.28676 19.5754
      vertex 13.8295 -22.2568 14.6372
    endloop
  endfacet
  facet normal 0.809017 -0.587785 0
    outer loop
      vertex 14.0466 -21.958 -11.8004
      vertex 9.27051 -28.5317 -20
      vertex 18.3478 -16.0378 -12.3338
    endloop
  endfacet
  facet normal 0.809017 -0.587785 0
    outer loop
      vertex 9.27051 -28.5317 23.8969
      vertex 9.27051 -28.5317 -20
      vertex 14.0466 -21.958 -11.8004
    endloop
  endfacet
  facet normal 0.809017 -0.587785 0
    outer loop
      vertex 23.0956 -9.50303 20.8519
      vertex 13.8295 -22.2568 14.6372
      vertex 23.2528 -9.28676 19.5754
    endloop
  endfacet
  facet normal 0.809017 -0.587785 0
    outer loop
      vertex 30 0 40
      vertex 29.9735 -0.0364588 -0.225862
      vertex 30 0 -20
    endloop
  endfacet
  facet normal 0.809017 -0.587785 0
    outer loop
      vertex 30 0 40
      vertex 23.0956 -9.50303 20.8519
      vertex 29.9735 -0.0364588 -0.225862
    endloop
  endfacet
  facet normal 0.809017 -0.587785 0
    outer loop
      vertex 23.4092 -9.07148 40
      vertex 23.0956 -9.50303 20.8519
      vertex 30 0 40
    endloop
  endfacet
  facet normal 0.809017 -0.587785 0
    outer loop
      vertex 23.2528 -9.28676 19.5754
      vertex 29.9735 -0.0364588 -0.225862
      vertex 23.0956 -9.50303 20.8519
    endloop
  endfacet
  facet normal 0.809017 -0.587785 0
    outer loop
      vertex 29.9735 -0.0364588 -0.225862
      vertex 18.3478 -16.0378 -12.3338
      vertex 30 0 -20
    endloop
  endfacet
  facet normal 0 0 -1
    outer loop
      vertex 5.23598 -0.0640006 -20
      vertex 12.1494 14.9148 -20
      vertex 7.42634 -1.14718 -20
    endloop
  endfacet
  facet normal 0 0 -1
    outer loop
      vertex 9.27051 28.5317 -20
      vertex 12.1494 14.9148 -20
      vertex 6.93431 27.7726 -20
    endloop
  endfacet
  facet normal 0 0 -1
    outer loop
      vertex 30 0 -20
      vertex 12.1494 14.9148 -20
      vertex 9.27051 28.5317 -20
    endloop
  endfacet
  facet normal 0 0 -1
    outer loop
      vertex 7.42634 -1.14718 -20
      vertex 12.1494 14.9148 -20
      vertex 30 0 -20
    endloop
  endfacet
  facet normal 0 0 -1
    outer loop
      vertex 12.1494 -14.9148 -20
      vertex 30 0 -20
      vertex 9.27051 -28.5317 -20
    endloop
  endfacet
  facet normal 0 0 -1
    outer loop
      vertex 7.42634 -1.14718 -20
      vertex 30 0 -20
      vertex 12.1494 -14.9148 -20
    endloop
  endfacet
  facet normal 0 0 -1
    outer loop
      vertex 12.1494 -14.9148 -20
      vertex 9.27051 -28.5317 -20
      vertex 8.03716 -28.131 -20
    endloop
  endfacet
  facet normal -0.951934 0.296198 0.0780273
    outer loop
      vertex 14.9081 -13.4045 7.92222
      vertex 11.0708 -20.9393 -10.2895
      vertex 8.27214 -28.2073 -16.8434
    endloop
  endfacet
  facet normal -0.951934 0.296198 0.0780273
    outer loop
      vertex 8.27214 -28.2073 -16.8434
      vertex 11.0708 -20.9393 -10.2895
      vertex 15.0388 -8.46947 -9.21668
    endloop
  endfacet
  facet normal -0.951934 0.296198 0.0780273
    outer loop
      vertex 8.27214 -28.2073 -16.8434
      vertex 15.0388 -8.46947 -9.21668
      vertex 12.1494 -14.9148 -20
    endloop
  endfacet
  facet normal -0.951934 0.296198 0.0780273
    outer loop
      vertex 8.27214 -28.2073 -16.8434
      vertex 12.1494 -14.9148 -20
      vertex 8.03716 -28.131 -20
    endloop
  endfacet
  facet normal -0.595035 0.75 -0.288849
    outer loop
      vertex 11.4574 -16.9654 5.78454
      vertex 14.9636 -12.9976 8.86427
      vertex 14.9081 -13.4045 7.92222
    endloop
  endfacet
  facet normal -0.595035 0.75 -0.288849
    outer loop
      vertex 11.4574 -16.9654 5.78454
      vertex 14.9081 -13.4045 7.92222
      vertex 8.27214 -28.2073 -16.8434
    endloop
  endfacet
  facet normal -0.595035 0.75 -0.288849
    outer loop
      vertex 11.4574 -16.9654 5.78454
      vertex 8.27214 -28.2073 -16.8434
      vertex 3.77698 -21.0453 11.0129
    endloop
  endfacet
  facet normal -0.595035 0.75 -0.288849
    outer loop
      vertex 8.27214 -28.2073 -16.8434
      vertex 1.54607 -26.0219 2.68696
      vertex 3.77698 -21.0453 11.0129
    endloop
  endfacet
  facet normal 0.0402878 0.852869 -0.520569
    outer loop
      vertex -4.494 -21.2769 9.99339
      vertex 3.77698 -21.0453 11.0129
      vertex 1.54607 -26.0219 2.68696
    endloop
  endfacet
  facet normal 0.0402878 0.852869 -0.520569
    outer loop
      vertex -4.494 -21.2769 9.99339
      vertex 1.54607 -26.0219 2.68696
      vertex -8.8506 -18.2348 14.6402
    endloop
  endfacet
  facet normal 0.0402878 0.852869 -0.520569
    outer loop
      vertex 1.54607 -26.0219 2.68696
      vertex -10.5758 -22.0832 8.20165
      vertex -8.8506 -18.2348 14.6402
    endloop
  endfacet
  facet normal 0.656759 0.55667 -0.508709
    outer loop
      vertex -17.201 -9.25494 13.6861
      vertex -22.4215 -18.2343 -2.87975
      vertex -16.0341 -3.98587 20.9584
    endloop
  endfacet
  facet normal 0.656759 0.55667 -0.508709
    outer loop
      vertex -16.0341 -3.98587 20.9584
      vertex -14.7016 -2.83932 23.9334
      vertex -14.6722 -3.11867 23.6656
    endloop
  endfacet
  facet normal 0.656759 0.55667 -0.508709
    outer loop
      vertex -14.5789 -3.40587 23.4718
      vertex -16.0341 -3.98587 20.9584
      vertex -14.6722 -3.11867 23.6656
    endloop
  endfacet
  facet normal 0.656759 0.55667 -0.508709
    outer loop
      vertex -14.5789 -3.40587 23.4718
      vertex -17.201 -9.25494 13.6861
      vertex -16.0341 -3.98587 20.9584
    endloop
  endfacet
  facet normal 0.656759 0.55667 -0.508709
    outer loop
      vertex -8.8506 -18.2348 14.6402
      vertex -10.5758 -22.0832 8.20165
      vertex -17.201 -9.25494 13.6861
    endloop
  endfacet
  facet normal 0.656759 0.55667 -0.508709
    outer loop
      vertex -10.5758 -22.0832 8.20165
      vertex -22.4215 -18.2343 -2.87975
      vertex -17.201 -9.25494 13.6861
    endloop
  endfacet
  facet normal 0.295175 -0.852869 0.430682
    outer loop
      vertex -16.3923 0.66242 -20
      vertex -17.5922 1.26521 -17.9839
      vertex -18.1324 0.0601599 -20
    endloop
  endfacet
  facet normal 0.501068 -0.677086 -0.538967
    outer loop
      vertex -5.05433 23.8773 7.90221
      vertex -3.88861 21.2769 12.2527
      vertex -8.4177 19.0169 10.8813
    endloop
  endfacet
  facet normal 0.501068 -0.677086 -0.538967
    outer loop
      vertex -20.9755 18.7042 -0.400644
      vertex -5.05433 23.8773 7.90221
      vertex -8.62144 21.4273 7.66374
    endloop
  endfacet
  facet normal 0.501068 -0.677086 -0.538967
    outer loop
      vertex -8.62144 21.4273 7.66374
      vertex -5.05433 23.8773 7.90221
      vertex -8.4177 19.0169 10.8813
    endloop
  endfacet
  facet normal 0.501068 -0.677086 -0.538967
    outer loop
      vertex -20.9755 18.7042 -0.400644
      vertex -8.62144 21.4273 7.66374
      vertex -18.2328 12.586 9.83521
    endloop
  endfacet
  facet normal -0.341104 -0.844312 -0.413261
    outer loop
      vertex 7.15349 27.8438 -10.2779
      vertex 12.0301 16.9654 7.92199
      vertex 2.76453 21.0453 7.23434
    endloop
  endfacet
  facet normal -0.341104 -0.844312 -0.413261
    outer loop
      vertex -3.88861 21.2769 12.2527
      vertex 7.15349 27.8438 -10.2779
      vertex 2.76453 21.0453 7.23434
    endloop
  endfacet
  facet normal -0.341104 -0.844312 -0.413261
    outer loop
      vertex -3.88861 21.2769 12.2527
      vertex -5.05433 23.8773 7.90221
      vertex 7.15349 27.8438 -10.2779
    endloop
  endfacet
  facet normal -0.926418 -0.375754 0.0236381
    outer loop
      vertex 15.8502 6.65955 -6.18862
      vertex 12.9266 14.0506 -3.27737
      vertex 12.1494 14.9148 -20
    endloop
  endfacet
  facet normal -0.926418 -0.375754 0.0236381
    outer loop
      vertex 13.6366 12.7062 3.1771
      vertex 12.9266 14.0506 -3.27737
      vertex 16.0996 6.68674 4.01843
    endloop
  endfacet
  facet normal -0.926418 -0.375754 0.0236381
    outer loop
      vertex 12.1494 14.9148 -20
      vertex 12.9266 14.0506 -3.27737
      vertex 12.0301 16.9654 7.92199
    endloop
  endfacet
  facet normal -0.926418 -0.375754 0.0236381
    outer loop
      vertex 12.9266 14.0506 -3.27737
      vertex 13.6366 12.7062 3.1771
      vertex 12.0301 16.9654 7.92199
    endloop
  endfacet
  facet normal -0.926418 -0.375754 0.0236381
    outer loop
      vertex 12.1494 14.9148 -20
      vertex 12.0301 16.9654 7.92199
      vertex 7.15349 27.8438 -10.2779
    endloop
  endfacet
  facet normal -0.926418 -0.375754 0.0236381
    outer loop
      vertex 12.1494 14.9148 -20
      vertex 7.15349 27.8438 -10.2779
      vertex 6.93431 27.7726 -20
    endloop
  endfacet
  facet normal 0.809017 0.587785 0
    outer loop
      vertex 22.0644 10.9225 -7.91709
      vertex 9.27051 28.5317 -20
      vertex 9.27051 28.5317 21.8925
    endloop
  endfacet
  facet normal 0.809017 0.587785 0
    outer loop
      vertex 30 0 -20
      vertex 9.27051 28.5317 -20
      vertex 22.0644 10.9225 -7.91709
    endloop
  endfacet
  facet normal 0.809017 0.587785 0
    outer loop
      vertex 30 0 40
      vertex 29.9455 0.0750175 -0.356195
      vertex 24.1945 7.99053 40
    endloop
  endfacet
  facet normal 0.809017 0.587785 0
    outer loop
      vertex 30 0 40
      vertex 30 0 -20
      vertex 29.9455 0.0750175 -0.356195
    endloop
  endfacet
  facet normal 0.809017 0.587785 0
    outer loop
      vertex 22.0644 10.9225 -7.91709
      vertex 26.2651 5.14065 -11.0199
      vertex 30 0 -20
    endloop
  endfacet
  facet normal 0.809017 0.587785 0
    outer loop
      vertex 26.2651 5.14065 -11.0199
      vertex 29.9455 0.0750175 -0.356195
      vertex 30 0 -20
    endloop
  endfacet
  facet normal 0.809017 0.587785 0
    outer loop
      vertex 29.9455 0.0750175 -0.356195
      vertex 23.0956 9.50303 20.8519
      vertex 24.1945 7.99053 40
    endloop
  endfacet
  facet normal 0.809017 0.587785 0
    outer loop
      vertex 29.9455 0.0750175 -0.356195
      vertex 16.358 18.7767 13.3332
      vertex 23.0956 9.50303 20.8519
    endloop
  endfacet
  facet normal 0.809017 0.587785 0
    outer loop
      vertex 16.358 18.7767 13.3332
      vertex 22.0644 10.9225 -7.91709
      vertex 9.27051 28.5317 21.8925
    endloop
  endfacet
  facet normal 0.809017 0.587785 0
    outer loop
      vertex 29.9455 0.0750175 -0.356195
      vertex 22.0644 10.9225 -7.91709
      vertex 16.358 18.7767 13.3332
    endloop
  endfacet
  facet normal -0.370891 -0.75 0.547668
    outer loop
      vertex 12.0301 16.9654 7.92199
      vertex 13.6366 12.7062 3.1771
      vertex 16.358 18.7767 13.3332
    endloop
  endfacet
  facet normal -0.370891 -0.75 0.547668
    outer loop
      vertex 5.58354 27.3337 17.755
      vertex 12.0301 16.9654 7.92199
      vertex 9.27051 28.5317 21.8925
    endloop
  endfacet
  facet normal -0.370891 -0.75 0.547668
    outer loop
      vertex 9.27051 28.5317 21.8925
      vertex 12.0301 16.9654 7.92199
      vertex 16.358 18.7767 13.3332
    endloop
  endfacet
  facet normal -0.370891 -0.75 0.547668
    outer loop
      vertex 2.76453 21.0453 7.23434
      vertex 12.0301 16.9654 7.92199
      vertex 5.58354 27.3337 17.755
    endloop
  endfacet
  facet normal 0.295175 -0.852869 0.430682
    outer loop
      vertex -8.4177 19.0169 10.8813
      vertex -3.88861 21.2769 12.2527
      vertex 5.58354 27.3337 17.755
    endloop
  endfacet
  facet normal 0.295175 -0.852869 0.430682
    outer loop
      vertex 5.58354 27.3337 17.755
      vertex -3.88861 21.2769 12.2527
      vertex 2.76453 21.0453 7.23434
    endloop
  endfacet
  facet normal 0.295175 -0.852869 0.430682
    outer loop
      vertex -8.4177 19.0169 10.8813
      vertex 5.58354 27.3337 17.755
      vertex -7.86488 22.9641 18.319
    endloop
  endfacet
  facet normal 0.295175 -0.852869 0.430682
    outer loop
      vertex -8.4177 19.0169 10.8813
      vertex -7.86488 22.9641 18.319
      vertex -9.58686 19.1228 11.8925
    endloop
  endfacet
  facet normal 0.823125 -0.55667 0.112176
    outer loop
      vertex -9.58686 19.1228 11.8925
      vertex -7.86488 22.9641 18.319
      vertex -11.3677 21.8259 38.3738
    endloop
  endfacet
  facet normal 0.823125 -0.55667 0.112176
    outer loop
      vertex -14.9856 13.7553 24.8714
      vertex -9.58686 19.1228 11.8925
      vertex -11.3677 21.8259 38.3738
    endloop
  endfacet
  facet normal 0.965926 3.636e-018 -0.258819
    outer loop
      vertex -11.3677 21.8259 38.3738
      vertex -10.9319 21.9675 40
      vertex -10.9319 7.39562 40
    endloop
  endfacet
  facet normal 0.965926 3.636e-018 -0.258819
    outer loop
      vertex -12.9416 6.94733 32.5
      vertex -11.3677 21.8259 38.3738
      vertex -12.2161 4.53106 35.2075
    endloop
  endfacet
  facet normal 0.965926 3.636e-018 -0.258819
    outer loop
      vertex -12.2161 4.53106 35.2075
      vertex -11.3677 21.8259 38.3738
      vertex -10.9319 7.39562 40
    endloop
  endfacet
  facet normal 0.965926 3.636e-018 -0.258819
    outer loop
      vertex -12.9416 7.42024 32.5
      vertex -11.3677 21.8259 38.3738
      vertex -12.9416 6.94733 32.5
    endloop
  endfacet
  facet normal 0.965926 3.636e-018 -0.258819
    outer loop
      vertex -13.035 7.25844 32.1514
      vertex -11.3677 21.8259 38.3738
      vertex -12.9416 7.42024 32.5
    endloop
  endfacet
  facet normal 0.965926 3.636e-018 -0.258819
    outer loop
      vertex -14.9856 13.7553 24.8714
      vertex -11.3677 21.8259 38.3738
      vertex -13.035 7.25844 32.1514
    endloop
  endfacet
  facet normal -0.496732 -0.709406 -0.5
    outer loop
      vertex -10.5561 22.0896 8.64609
      vertex -8.62144 21.4273 7.66374
      vertex -8.4177 19.0169 10.8813
    endloop
  endfacet
  facet normal -0.496732 -0.709406 -0.5
    outer loop
      vertex -14.9856 13.7553 24.8714
      vertex -10.5561 22.0896 8.64609
      vertex -9.58686 19.1228 11.8925
    endloop
  endfacet
  facet normal -0.496732 -0.709406 -0.5
    outer loop
      vertex -9.58686 19.1228 11.8925
      vertex -10.5561 22.0896 8.64609
      vertex -8.4177 19.0169 10.8813
    endloop
  endfacet
  facet normal -0.496732 -0.709406 -0.5
    outer loop
      vertex -21.4624 18.546 24.5088
      vertex -10.5561 22.0896 8.64609
      vertex -14.9856 13.7553 24.8714
    endloop
  endfacet
  facet normal -0.496732 -0.709406 -0.5
    outer loop
      vertex -13.136 7.08347 32.5
      vertex -14.9856 13.7553 24.8714
      vertex -13.035 7.25844 32.1514
    endloop
  endfacet
  facet normal -0.496732 -0.709406 -0.5
    outer loop
      vertex -16.9727 4.48383 40
      vertex -14.9856 13.7553 24.8714
      vertex -13.136 7.08347 32.5
    endloop
  endfacet
  facet normal -0.496732 -0.709406 -0.5
    outer loop
      vertex -12.2161 4.53106 35.2075
      vertex -13.136 7.08347 32.5
      vertex -12.9416 6.94733 32.5
    endloop
  endfacet
  facet normal -0.496732 -0.709406 -0.5
    outer loop
      vertex -16.9727 4.48383 40
      vertex -13.136 7.08347 32.5
      vertex -12.2161 4.53106 35.2075
    endloop
  endfacet
  facet normal -0.496732 -0.709406 -0.5
    outer loop
      vertex -16.9727 4.48383 40
      vertex -12.2161 4.53106 35.2075
      vertex -9.25936 1.8433 36.0835
    endloop
  endfacet
  facet normal -0.496732 -0.709406 -0.5
    outer loop
      vertex -18.1326 5.29602 40
      vertex -14.9856 13.7553 24.8714
      vertex -16.9727 4.48383 40
    endloop
  endfacet
  facet normal -0.496732 -0.709406 -0.5
    outer loop
      vertex -21.4624 18.546 24.5088
      vertex -14.9856 13.7553 24.8714
      vertex -18.1326 5.29602 40
    endloop
  endfacet
  facet normal 0.994522 0.104528 0
    outer loop
      vertex -15 0 32.5
      vertex -14.6722 -3.11867 32.5
      vertex -14.6722 -3.11867 23.6656
    endloop
  endfacet
  facet normal 0.994522 0.104528 0
    outer loop
      vertex -15 0 30.3212
      vertex -15 0 32.5
      vertex -14.7016 -2.83932 23.9334
    endloop
  endfacet
  facet normal 0.994522 0.104528 0
    outer loop
      vertex -14.7016 -2.83932 23.9334
      vertex -15 0 32.5
      vertex -14.6722 -3.11867 23.6656
    endloop
  endfacet
  facet normal 0.994522 -0.104528 0
    outer loop
      vertex -14.9007 0.944454 32.5
      vertex -15 0 32.5
      vertex -15 0 30.3212
    endloop
  endfacet
  facet normal 0 0 -1
    outer loop
      vertex -10.8645 0.462215 32.5
      vertex -10.6224 0.176625 32.5
      vertex -14.9007 0.944454 32.5
    endloop
  endfacet
  facet normal 0 0 -1
    outer loop
      vertex -14.9007 0.944454 32.5
      vertex -10.6224 0.176625 32.5
      vertex -12.1598 -0.961102 32.5
    endloop
  endfacet
  facet normal 0 0 -1
    outer loop
      vertex -14.9007 0.944454 32.5
      vertex -12.1598 -0.961102 32.5
      vertex -12.1598 -8.77427 32.5
    endloop
  endfacet
  facet normal 0 0 -1
    outer loop
      vertex -14.9007 0.944454 32.5
      vertex -12.1598 -8.77427 32.5
      vertex -13.7032 -6.10105 32.5
    endloop
  endfacet
  facet normal 0 0 -1
    outer loop
      vertex -14.9007 0.944454 32.5
      vertex -13.7032 -6.10105 32.5
      vertex -14.6722 -3.11867 32.5
    endloop
  endfacet
  facet normal 0 0 -1
    outer loop
      vertex -14.9007 0.944454 32.5
      vertex -14.6722 -3.11867 32.5
      vertex -15 0 32.5
    endloop
  endfacet
  facet normal 0.656759 0.55667 -0.508709
    outer loop
      vertex -9.25936 1.8433 36.0835
      vertex -3.94273 -0.850235 40
      vertex -10.6224 0.176625 32.5
    endloop
  endfacet
  facet normal 0.656759 0.55667 -0.508709
    outer loop
      vertex -9.25936 1.8433 36.0835
      vertex -12.2161 4.53106 35.2075
      vertex -10.9319 7.39562 40
    endloop
  endfacet
  facet normal 0.656759 0.55667 -0.508709
    outer loop
      vertex -10.9319 7.39562 40
      vertex -3.94273 -0.850235 40
      vertex -9.25936 1.8433 36.0835
    endloop
  endfacet
  facet normal 0.656759 0.55667 -0.508709
    outer loop
      vertex -10.8645 0.462215 32.5
      vertex -9.25936 1.8433 36.0835
      vertex -10.6224 0.176625 32.5
    endloop
  endfacet
  facet normal 0.501068 -0.677086 -0.538967
    outer loop
      vertex -10.6224 0.176625 32.5
      vertex -3.94273 -0.850235 40
      vertex -10.1502 -5.44398 40
    endloop
  endfacet
  facet normal 0.501068 -0.677086 -0.538967
    outer loop
      vertex -12.1598 -0.961102 32.5
      vertex -10.6224 0.176625 32.5
      vertex -10.1502 -5.44398 40
    endloop
  endfacet
  facet normal 0.951057 0.309017 0
    outer loop
      vertex -14.6722 -3.11867 32.5
      vertex -13.7032 -6.10105 32.5
      vertex -13.7032 -6.10105 26.74
    endloop
  endfacet
  facet normal 0.951057 0.309017 0
    outer loop
      vertex -14.6722 -3.11867 23.6656
      vertex -14.6722 -3.11867 32.5
      vertex -14.5789 -3.40587 23.4718
    endloop
  endfacet
  facet normal 0.951057 0.309017 0
    outer loop
      vertex -14.5789 -3.40587 23.4718
      vertex -14.6722 -3.11867 32.5
      vertex -13.7032 -6.10105 26.74
    endloop
  endfacet
  facet normal 0.866025 0.5 0
    outer loop
      vertex -13.7032 -6.10105 32.5
      vertex -12.1598 -8.77427 32.5
      vertex -13.7032 -6.10105 26.74
    endloop
  endfacet
  facet normal -0.81412 0.375754 0.442738
    outer loop
      vertex 23.0956 -9.50303 20.8519
      vertex 22.7288 -9.10736 19.8415
      vertex 13.8295 -22.2568 14.6372
    endloop
  endfacet
  facet normal -0.81412 0.375754 0.442738
    outer loop
      vertex 23.0956 -9.50303 20.8519
      vertex 22.5743 -8.34009 18.9063
      vertex 22.7288 -9.10736 19.8415
    endloop
  endfacet
  facet normal -0.81412 0.375754 0.442738
    outer loop
      vertex 13.8295 -22.2568 14.6372
      vertex 14.9636 -12.9976 8.86427
      vertex 11.4574 -16.9654 5.78454
    endloop
  endfacet
  facet normal -0.81412 0.375754 0.442738
    outer loop
      vertex 14.9636 -12.9976 8.86427
      vertex 13.8295 -22.2568 14.6372
      vertex 22.7288 -9.10736 19.8415
    endloop
  endfacet
  facet normal -0.926418 -0.375754 0.0236381
    outer loop
      vertex 23.0956 -9.50303 20.8519
      vertex 23.4092 -9.07148 40
      vertex 22.5743 -8.34009 18.9063
    endloop
  endfacet
  facet normal -0.926418 -0.375754 0.0236381
    outer loop
      vertex 22.5743 -8.34009 18.9063
      vertex 23.4092 -9.07148 40
      vertex 20.6254 -2.20813 40
    endloop
  endfacet
  facet normal -0.926418 -0.375754 0.0236381
    outer loop
      vertex 22.5743 -8.34009 18.9063
      vertex 20.6254 -2.20813 40
      vertex 19.3492 0.638797 35.237
    endloop
  endfacet
  facet normal -0.926418 -0.375754 0.0236381
    outer loop
      vertex 22.5743 -8.34009 18.9063
      vertex 19.3492 0.638797 35.237
      vertex 20.1249 -1.76726 27.3916
    endloop
  endfacet
  facet normal -0.926418 -0.375754 0.0236381
    outer loop
      vertex 22.5743 -8.34009 18.9063
      vertex 20.1249 -1.76726 27.3916
      vertex 19.1902 -0.486099 11.1249
    endloop
  endfacet
  facet normal 0 0 1
    outer loop
      vertex 23.5033 5.76898 40
      vertex 15.8702 -0.287 40
      vertex 20.6254 -2.20813 40
    endloop
  endfacet
  facet normal 0 0 1
    outer loop
      vertex 23.4092 -9.07148 40
      vertex 23.5033 5.76898 40
      vertex 20.6254 -2.20813 40
    endloop
  endfacet
  facet normal 0 0 1
    outer loop
      vertex 23.4092 -9.07148 40
      vertex 30 0 40
      vertex 23.5033 5.76898 40
    endloop
  endfacet
  facet normal 0 0 1
    outer loop
      vertex 30 0 40
      vertex 24.1945 7.99053 40
      vertex 23.5033 5.76898 40
    endloop
  endfacet
  facet normal -0.852801 0.291944 0.433013
    outer loop
      vertex 29.9455 0.0750175 -0.356195
      vertex 26.2651 5.14065 -11.0199
      vertex 29.9735 -0.0364588 -0.225862
    endloop
  endfacet
  facet normal -0.852801 0.291944 0.433013
    outer loop
      vertex 29.9735 -0.0364588 -0.225862
      vertex 26.2651 5.14065 -11.0199
      vertex 18.3478 -16.0378 -12.3338
    endloop
  endfacet
  facet normal 0.387978 -0.200845 0.899519
    outer loop
      vertex 14.0466 -21.958 -11.8004
      vertex 18.3478 -16.0378 -12.3338
      vertex 26.2651 5.14065 -11.0199
    endloop
  endfacet
  facet normal 0.387978 -0.200845 0.899519
    outer loop
      vertex 15.0388 -8.46947 -9.21668
      vertex 14.0466 -21.958 -11.8004
      vertex 22.0644 10.9225 -7.91709
    endloop
  endfacet
  facet normal 0.387978 -0.200845 0.899519
    outer loop
      vertex 22.0644 10.9225 -7.91709
      vertex 14.0466 -21.958 -11.8004
      vertex 26.2651 5.14065 -11.0199
    endloop
  endfacet
  facet normal 0.387978 -0.200845 0.899519
    outer loop
      vertex 12.9266 14.0506 -3.27737
      vertex 15.8502 6.65955 -6.18862
      vertex 22.0644 10.9225 -7.91709
    endloop
  endfacet
  facet normal 0.387978 -0.200845 0.899519
    outer loop
      vertex 14.4708 3.73852 -6.2459
      vertex 14.6722 3.11867 -6.47116
      vertex 15.8502 6.65955 -6.18862
    endloop
  endfacet
  facet normal 0.387978 -0.200845 0.899519
    outer loop
      vertex 14.6722 -3.11867 -7.86384
      vertex 15.8502 6.65955 -6.18862
      vertex 15 0 -7.30888
    endloop
  endfacet
  facet normal 0.387978 -0.200845 0.899519
    outer loop
      vertex 14.6722 3.11867 -6.47116
      vertex 15 0 -7.30888
      vertex 15.8502 6.65955 -6.18862
    endloop
  endfacet
  facet normal 0.387978 -0.200845 0.899519
    outer loop
      vertex 15.0388 -8.46947 -9.21668
      vertex 11.0708 -20.9393 -10.2895
      vertex 14.0466 -21.958 -11.8004
    endloop
  endfacet
  facet normal 0.387978 -0.200845 0.899519
    outer loop
      vertex 14.6722 -3.11867 -7.86384
      vertex 15.0388 -8.46947 -9.21668
      vertex 15.8502 6.65955 -6.18862
    endloop
  endfacet
  facet normal 0.387978 -0.200845 0.899519
    outer loop
      vertex 15.8502 6.65955 -6.18862
      vertex 15.0388 -8.46947 -9.21668
      vertex 22.0644 10.9225 -7.91709
    endloop
  endfacet
  facet normal 0.387978 -0.200845 0.899519
    outer loop
      vertex 14.2437 -4.43761 -7.97349
      vertex 15.0388 -8.46947 -9.21668
      vertex 14.6722 -3.11867 -7.86384
    endloop
  endfacet
  facet normal -0.496732 -0.709406 -0.5
    outer loop
      vertex 22.0644 10.9225 -7.91709
      vertex 29.9455 0.0750175 -0.356195
      vertex 29.9735 -0.0364588 -0.225862
    endloop
  endfacet
  facet normal -0.496732 -0.709406 -0.5
    outer loop
      vertex 22.7288 -9.10736 19.8415
      vertex 22.0644 10.9225 -7.91709
      vertex 23.2528 -9.28676 19.5754
    endloop
  endfacet
  facet normal -0.496732 -0.709406 -0.5
    outer loop
      vertex 23.2528 -9.28676 19.5754
      vertex 22.0644 10.9225 -7.91709
      vertex 29.9735 -0.0364588 -0.225862
    endloop
  endfacet
  facet normal -0.496732 -0.709406 -0.5
    outer loop
      vertex 22.5743 -8.34009 18.9063
      vertex 22.0644 10.9225 -7.91709
      vertex 22.7288 -9.10736 19.8415
    endloop
  endfacet
  facet normal -0.496732 -0.709406 -0.5
    outer loop
      vertex 19.1902 -0.486099 11.1249
      vertex 22.0644 10.9225 -7.91709
      vertex 22.5743 -8.34009 18.9063
    endloop
  endfacet
  facet normal -0.496732 -0.709406 -0.5
    outer loop
      vertex 19.575 1.64948 7.71266
      vertex 22.0644 10.9225 -7.91709
      vertex 19.1902 -0.486099 11.1249
    endloop
  endfacet
  facet normal -0.496732 -0.709406 -0.5
    outer loop
      vertex 16.0996 6.68674 4.01843
      vertex 22.0644 10.9225 -7.91709
      vertex 19.575 1.64948 7.71266
    endloop
  endfacet
  facet normal -0.496732 -0.709406 -0.5
    outer loop
      vertex 12.9266 14.0506 -3.27737
      vertex 22.0644 10.9225 -7.91709
      vertex 16.0996 6.68674 4.01843
    endloop
  endfacet
  facet normal 0.108754 0.910251 -0.399519
    outer loop
      vertex 14.9636 -12.9976 8.86427
      vertex 22.7288 -9.10736 19.8415
      vertex 14.9081 -13.4045 7.92222
    endloop
  endfacet
  facet normal 0.108754 0.910251 -0.399519
    outer loop
      vertex 14.9081 -13.4045 7.92222
      vertex 22.7288 -9.10736 19.8415
      vertex 23.2528 -9.28676 19.5754
    endloop
  endfacet
  facet normal 0.108754 0.910251 -0.399519
    outer loop
      vertex 14.9081 -13.4045 7.92222
      vertex 23.2528 -9.28676 19.5754
      vertex 14.0466 -21.958 -11.8004
    endloop
  endfacet
  facet normal 0.108754 0.910251 -0.399519
    outer loop
      vertex 14.9081 -13.4045 7.92222
      vertex 14.0466 -21.958 -11.8004
      vertex 11.0708 -20.9393 -10.2895
    endloop
  endfacet
  facet normal -0.370891 -0.75 0.547668
    outer loop
      vertex 7.42634 -1.14718 -20
      vertex 8.73285 1.76726 -15.124
      vertex 5.23598 -0.0640006 -20
    endloop
  endfacet
  facet normal -0.863413 -0.296198 0.408393
    outer loop
      vertex 15.0388 -8.46947 -9.21668
      vertex 14.2437 -4.43761 -7.97349
      vertex 12.1494 -14.9148 -20
    endloop
  endfacet
  facet normal -0.863413 -0.296198 0.408393
    outer loop
      vertex 12.1494 -14.9148 -20
      vertex 14.2437 -4.43761 -7.97349
      vertex 13.7032 -6.10105 -10.3226
    endloop
  endfacet
  facet normal -0.863413 -0.296198 0.408393
    outer loop
      vertex 12.1494 -14.9148 -20
      vertex 13.7032 -6.10105 -10.3226
      vertex 13.0571 -7.22001 -12.5
    endloop
  endfacet
  facet normal -0.863413 -0.296198 0.408393
    outer loop
      vertex 13.0571 -7.22001 -12.5
      vertex 10.0533 1.53629 -12.5
      vertex 12.1494 -14.9148 -20
    endloop
  endfacet
  facet normal -0.863413 -0.296198 0.408393
    outer loop
      vertex 12.1494 -14.9148 -20
      vertex 10.0533 1.53629 -12.5
      vertex 8.73285 1.76726 -15.124
    endloop
  endfacet
  facet normal -0.863413 -0.296198 0.408393
    outer loop
      vertex 12.1494 -14.9148 -20
      vertex 8.73285 1.76726 -15.124
      vertex 7.42634 -1.14718 -20
    endloop
  endfacet
  facet normal -0.81412 0.375754 0.442738
    outer loop
      vertex 10.0533 1.53629 -12.5
      vertex 12.8456 7.58635 -12.5
      vertex 8.73285 1.76726 -15.124
    endloop
  endfacet
  facet normal -0.81412 0.375754 0.442738
    outer loop
      vertex 12.1494 14.9148 -20
      vertex 12.8456 7.58635 -12.5
      vertex 15.8502 6.65955 -6.18862
    endloop
  endfacet
  facet normal -0.81412 0.375754 0.442738
    outer loop
      vertex 15.8502 6.65955 -6.18862
      vertex 13.7032 6.10105 -9.66254
      vertex 14.4708 3.73852 -6.2459
    endloop
  endfacet
  facet normal -0.81412 0.375754 0.442738
    outer loop
      vertex 12.8456 7.58635 -12.5
      vertex 13.7032 6.10105 -9.66254
      vertex 15.8502 6.65955 -6.18862
    endloop
  endfacet
  facet normal -0.81412 0.375754 0.442738
    outer loop
      vertex 8.73285 1.76726 -15.124
      vertex 12.8456 7.58635 -12.5
      vertex 12.1494 14.9148 -20
    endloop
  endfacet
  facet normal -0.81412 0.375754 0.442738
    outer loop
      vertex 8.73285 1.76726 -15.124
      vertex 12.1494 14.9148 -20
      vertex 5.23598 -0.0640006 -20
    endloop
  endfacet
  facet normal -0.863413 -0.296198 0.408393
    outer loop
      vertex 19.575 1.64948 7.71266
      vertex 23.0956 9.50303 20.8519
      vertex 16.0996 6.68674 4.01843
    endloop
  endfacet
  facet normal -0.863413 -0.296198 0.408393
    outer loop
      vertex 16.0996 6.68674 4.01843
      vertex 23.0956 9.50303 20.8519
      vertex 16.358 18.7767 13.3332
    endloop
  endfacet
  facet normal -0.863413 -0.296198 0.408393
    outer loop
      vertex 16.0996 6.68674 4.01843
      vertex 16.358 18.7767 13.3332
      vertex 13.6366 12.7062 3.1771
    endloop
  endfacet
  facet normal -0.951934 0.296198 0.0780273
    outer loop
      vertex 23.5033 5.76898 40
      vertex 24.1945 7.99053 40
      vertex 20.1249 -1.76726 27.3916
    endloop
  endfacet
  facet normal -0.951934 0.296198 0.0780273
    outer loop
      vertex 20.1249 -1.76726 27.3916
      vertex 24.1945 7.99053 40
      vertex 23.0956 9.50303 20.8519
    endloop
  endfacet
  facet normal -0.951934 0.296198 0.0780273
    outer loop
      vertex 20.1249 -1.76726 27.3916
      vertex 23.0956 9.50303 20.8519
      vertex 19.575 1.64948 7.71266
    endloop
  endfacet
  facet normal -0.951934 0.296198 0.0780273
    outer loop
      vertex 20.1249 -1.76726 27.3916
      vertex 19.575 1.64948 7.71266
      vertex 19.1902 -0.486099 11.1249
    endloop
  endfacet
  facet normal 0.866025 -0.5 0
    outer loop
      vertex -13.035 7.25844 32.1514
      vertex -12.9416 7.42024 32.5
      vertex -13.136 7.08347 32.5
    endloop
  endfacet
  facet normal 0 0 -1
    outer loop
      vertex -12.9416 7.42024 32.5
      vertex -12.9416 6.94733 32.5
      vertex -13.136 7.08347 32.5
    endloop
  endfacet
  facet normal -0.595035 0.75 -0.288849
    outer loop
      vertex 20.1249 -1.76726 27.3916
      vertex 19.3492 0.638797 35.237
      vertex 23.5033 5.76898 40
    endloop
  endfacet
  facet normal -0.595035 0.75 -0.288849
    outer loop
      vertex 23.5033 5.76898 40
      vertex 19.3492 0.638797 35.237
      vertex 15.8702 -0.287 40
    endloop
  endfacet
  facet normal -0.341104 -0.844312 -0.413261
    outer loop
      vertex 19.3492 0.638797 35.237
      vertex 20.6254 -2.20813 40
      vertex 15.8702 -0.287 40
    endloop
  endfacet
  facet normal -0.951057 0.309017 0
    outer loop
      vertex 14.2437 -4.43761 -7.97349
      vertex 14.6722 -3.11867 -7.86384
      vertex 13.7032 -6.10105 -10.3226
    endloop
  endfacet
  facet normal -0.951057 0.309017 0
    outer loop
      vertex 13.7032 -6.10105 -10.3226
      vertex 14.6722 -3.11867 -7.86384
      vertex 14.6722 -3.11867 -12.5
    endloop
  endfacet
  facet normal -0.951057 0.309017 0
    outer loop
      vertex 13.7032 -6.10105 -10.3226
      vertex 14.6722 -3.11867 -12.5
      vertex 13.7032 -6.10105 -12.5
    endloop
  endfacet
  facet normal -0.994522 0.104528 0
    outer loop
      vertex 15 0 -7.30888
      vertex 15 0 -12.5
      vertex 14.6722 -3.11867 -7.86384
    endloop
  endfacet
  facet normal -0.994522 0.104528 0
    outer loop
      vertex 14.6722 -3.11867 -7.86384
      vertex 15 0 -12.5
      vertex 14.6722 -3.11867 -12.5
    endloop
  endfacet
  facet normal -0.994522 -0.104528 0
    outer loop
      vertex 15 0 -7.30888
      vertex 14.6722 3.11867 -6.47116
      vertex 15 0 -12.5
    endloop
  endfacet
  facet normal -0.994522 -0.104528 0
    outer loop
      vertex 15 0 -12.5
      vertex 14.6722 3.11867 -6.47116
      vertex 14.6722 3.11867 -12.5
    endloop
  endfacet
  facet normal -0.951057 -0.309017 0
    outer loop
      vertex 14.6722 3.11867 -6.47116
      vertex 14.4708 3.73852 -6.2459
      vertex 14.6722 3.11867 -12.5
    endloop
  endfacet
  facet normal -0.951057 -0.309017 0
    outer loop
      vertex 14.6722 3.11867 -12.5
      vertex 14.4708 3.73852 -6.2459
      vertex 13.7032 6.10105 -9.66254
    endloop
  endfacet
  facet normal -0.951057 -0.309017 0
    outer loop
      vertex 14.6722 3.11867 -12.5
      vertex 13.7032 6.10105 -9.66254
      vertex 13.7032 6.10105 -12.5
    endloop
  endfacet
  facet normal 0 0 1
    outer loop
      vertex 13.0571 -7.22001 -12.5
      vertex 13.7032 -6.10105 -12.5
      vertex 14.6722 -3.11867 -12.5
    endloop
  endfacet
  facet normal 0 0 1
    outer loop
      vertex 14.6722 3.11867 -12.5
      vertex 13.0571 -7.22001 -12.5
      vertex 15 0 -12.5
    endloop
  endfacet
  facet normal 0 0 1
    outer loop
      vertex 15 0 -12.5
      vertex 13.0571 -7.22001 -12.5
      vertex 14.6722 -3.11867 -12.5
    endloop
  endfacet
  facet normal 0 0 1
    outer loop
      vertex 13.7032 6.10105 -12.5
      vertex 13.0571 -7.22001 -12.5
      vertex 14.6722 3.11867 -12.5
    endloop
  endfacet
  facet normal 0 0 1
    outer loop
      vertex 12.8456 7.58635 -12.5
      vertex 13.0571 -7.22001 -12.5
      vertex 13.7032 6.10105 -12.5
    endloop
  endfacet
  facet normal 0 0 1
    outer loop
      vertex 10.0533 1.53629 -12.5
      vertex 13.0571 -7.22001 -12.5
      vertex 12.8456 7.58635 -12.5
    endloop
  endfacet
  facet normal -0.866025 0.5 0
    outer loop
      vertex 13.7032 -6.10105 -10.3226
      vertex 13.7032 -6.10105 -12.5
      vertex 13.0571 -7.22001 -12.5
    endloop
  endfacet
  facet normal -0.866025 -0.5 0
    outer loop
      vertex 13.7032 6.10105 -12.5
      vertex 13.7032 6.10105 -9.66254
      vertex 12.8456 7.58635 -12.5
    endloop
  endfacet
endsolid OpenSCAD_Model
